# xmcd CD database file generated by OrangeCD 5.2
#
# Track frame offsets:
#	150
#	16867
#	37805
#	57045
#	80540
#	102087
#	126017
#	145280
#	164847
#	186625
#
# Disc length: 2736 seconds
#
# Revision: 0
# Processed by: cddbd v1.5.1PL0 Copyright (c) Steve Scherf et al.
# Submitted via: OrangeCD 5.2
#
DISCID=820aae0a
DTITLE=Various Artist - Groove Power The Best Of 80's R&B
DYEAR=1997
DGENRE=R&B Compilation
TTITLE0=Billy Ocean - Caribbean Queen
TTITLE1=Whodini - Friends
TTITLE2=Expose - Seasons Change
TTITLE3=D.J. Jazzy Jeff and The Fresh Prince - Parents Just Don't Understand
TTITLE4=The Pointer Sisters - Automatic
TTITLE5=Jonathan Butler - Lies
TTITLE6=Aretha Franklin - Jump To It
TTITLE7=Jermaine Jackson - Do What You Do
TTITLE8=Tavares - Deeper In Love
TTITLE9=Tyler Collins - Whatcha Gonna Do
EXTD=
EXTT0=
EXTT1=
EXTT2=
EXTT3=
EXTT4=
EXTT5=
EXTT6=
EXTT7=
EXTT8=
EXTT9=
PLAYORDER=
